<?xml version="1.0" encoding="iso-8859-1"?>
<!-- Generator: Adobe Illustrator 19.0.0, SVG Export Plug-In . SVG Version: 6.00 Build 0)  -->
<svg xmlns="http://www.w3.org/2000/svg" xmlns:xlink="http://www.w3.org/1999/xlink" version="1.1" id="Capa_1" x="0px" y="0px" viewBox="0 0 105 105" style="enable-background:new 0 0 105 105;" xml:space="preserve" width="512px" height="512px">
<g id="planet">
	<g>
		<path style="fill-rule:evenodd;clip-rule:evenodd;" d="M104.213,45.188c-0.966-6.832-2.764-13.469-4.957-20.036    C96.778,17.728,91.44,12.912,85.47,8.508c-0.266-0.197-0.596-0.305-0.875-0.487c-2.139-1.396-4.421-2.554-6.453-4.146    c-1.574-1.234-3.414-2.139-5.424-2.478c-2.409-0.404-4.832-0.803-7.265-0.986c-3.457-0.262-6.887,0.312-10.295,0.814    c-3.736,0.553-7.443,1.311-11.174,1.912c-1.181,0.188-2.415,0.057-3.594,0.254c-4.671,0.777-8.942,2.636-13.022,4.986    c-1.637,0.941-3.267,1.912-4.963,2.738c-7.006,3.408-12.041,8.73-15.173,15.801C2.538,37.52-0.061,48.603,0.001,60.251    c0.014,3.343,0.095,6.669,0.624,9.991c0.582,3.662,1.581,7.178,3.228,10.481c3.778,7.568,9.604,13.005,17.34,16.422    c2.34,1.033,4.641,2.154,6.963,3.225c1.112,0.514,2.211,1.065,3.353,1.498c2.403,0.914,4.85,1.615,7.478,1.5    c0.869-0.037,1.77,0.13,2.625,0.332c4.941,1.17,9.949,1.029,14.958,0.797c1.55-0.073,3.089-0.386,4.639-0.457    c2.597-0.12,5.052-0.721,7.397-1.825c2.832-1.335,5.512-2.917,7.987-4.835c1.94-1.502,3.977-2.838,6.109-4.061    c4.794-2.748,8.884-6.321,12.086-10.855c1.35-1.908,2.693-3.824,3.963-5.786c0.846-1.305,1.596-2.677,2.326-4.052    c2.896-5.459,3.413-11.457,3.857-17.457C105.184,51.817,104.677,48.478,104.213,45.188z M97.003,62.448    c-0.223,0.744-0.545,1.492-0.586,2.251c-0.197,3.712-1.849,6.862-3.868,9.812c-2.147,3.137-4.783,5.857-7.79,8.218    c-2.545,1.999-5.113,3.917-8.014,5.403c-2.374,1.216-4.568,2.775-6.91,4.057c-3.875,2.121-8.007,3.303-12.478,3.07    c-1.224-0.064-2.452-0.078-3.677-0.068c-1.642,0.013-3.036-0.287-3.896-1.959c-0.396-0.77-1.336-0.625-1.951,0.109    c-0.071,0.084-0.132,0.186-0.166,0.289c-0.294,0.906-0.988,1.094-1.837,1.08c-1.099-0.016-1.312-0.176-1.553-1.237    c-0.121-0.532-0.22-1.089-0.457-1.57c-0.35-0.712-1.528-0.829-2.016-0.266c-0.072,0.083-0.172,0.158-0.206,0.255    c-0.588,1.74-1.771,1.981-3.347,1.395c-0.831-0.308-1.718-0.461-2.548-0.77c-1.521-0.56-1.74-0.995-1.405-2.497    c0.167-0.757,0.421-1.503,0.496-2.269c0.104-1.055-0.73-1.873-1.85-1.932c-0.588-0.033-1.132,0.117-1.437,0.646    c-0.445,0.77-0.793,1.592-1.24,2.359c-0.249,0.43-0.699,0.531-1.155,0.316c-0.503-0.238-1.016-0.475-1.464-0.795    c-0.361-0.258-0.584-0.633-0.415-1.152c0.241-0.74,0.435-1.496,0.63-2.248c0.111-0.43,0.218-0.863,0.272-1.303    c0.085-0.682-0.324-1.372-0.911-1.641c-0.549-0.251-1.11-0.225-1.586,0.104c-0.452,0.312-0.881,0.691-1.217,1.122    c-0.407,0.522-0.677,1.149-1.06,1.694c-0.278,0.396-0.736,0.582-1.144,0.263c-0.316-0.248-0.6-0.633-0.711-1.013    c-0.078-0.266,0.13-0.638,0.26-0.941c0.795-1.84,1.614-3.668,2.397-5.512c0.215-0.505,0.498-1.068,0.446-1.575    c-0.048-0.481-0.406-1.021-0.783-1.359c-0.466-0.417-1.132-0.269-1.508,0.165c-1.167,1.344-2.261,2.75-3.378,4.135    c-0.276,0.342-0.527,0.705-0.81,1.043c-0.06,0.072-0.262,0.135-0.3,0.101c-0.142-0.134-0.302-0.298-0.348-0.476    c-0.177-0.699,0.133-1.289,0.436-1.899c1.244-2.488,2.486-4.98,3.665-7.5c0.32-0.687,0.492-1.47,0.582-2.226    c0.068-0.566-0.272-1.054-0.814-1.346c-0.576-0.308-1.13-0.176-1.525,0.249c-1.06,1.136-2.107,2.29-3.072,3.507    c-0.69,0.871-1.225,1.859-1.861,2.773c-0.167,0.238-0.431,0.59-0.78,0.217c-0.22-0.234-0.489-0.541-0.501-0.826    c-0.021-0.42,0.106-0.879,0.28-1.273c1.128-2.543,2.294-5.072,3.435-7.611c0.411-0.912,0.796-1.838,1.173-2.764    c0.281-0.695,0.038-1.299-0.367-1.872c-0.355-0.503-0.985-0.653-1.446-0.312c-0.267,0.201-0.53,0.408-0.775,0.633    c-1.248,1.138-2.242,2.469-3.057,3.947c-0.298,0.537-0.448,1.242-1.219,1.379c-0.169-0.521-0.307-1.059-0.515-1.563    c-0.332-0.809-0.102-1.521,0.272-2.232c0.571-1.084,1.179-2.152,1.684-3.266c0.781-1.723,1.531-3.461,2.205-5.227    c0.228-0.6,0.253-1.305,0.251-1.96c-0.001-0.783-0.81-1.416-1.617-1.316c-0.322,0.04-0.621,0.242-0.943,0.323    c-0.554,0.138-0.912-0.108-0.881-0.57c0.111-1.694,0.505-3.265,1.631-4.632c2.126-2.58,4.178-5.218,6.263-7.83    c0.487-0.608,1.002-1.196,1.475-1.816c0.671-0.881,0.781-1.676,0.323-2.1c-0.669-0.62-1.464-0.508-2.191-0.234    c-0.611,0.229-1.135,0.68-1.72,0.992c-0.857,0.459-1.396,1.396-2.415,1.602c0.01,0.03,0.02,0.062,0.027,0.092    c-0.052,0.009-0.107,0.014-0.16,0.021c-0.07,0.085-0.141,0.169-0.211,0.254c0.026-0.073,0.03-0.184,0.08-0.213    c0.038-0.023,0.084-0.033,0.131-0.041c0.028-0.033,0.056-0.066,0.083-0.1c0.017-0.003,0.032-0.011,0.049-0.014    c-0.026-0.082-0.055-0.164-0.037-0.234c0.863-3.355,1.893-6.719,4.485-9.135c6.83-6.367,14.444-11.517,23.498-14.254    c4.161-1.256,8.425-2.061,12.689-2.846c1.546-0.285,3.109-0.145,4.61,0.421c0.54,0.203,0.596,0.333,0.235,0.948    c-0.113,0.191-0.285,0.347-0.396,0.536c-0.287,0.501-0.537,1.116,0.036,1.474c0.415,0.26,1.148,0.429,1.536,0.232    c1.182-0.598,2.289-1.354,3.378-2.115c0.91-0.637,1.717-1.447,2.861-1.641c0.294-0.049,0.626,0.132,0.94,0.207    c-0.061,0.197-0.074,0.427-0.189,0.58c-0.198,0.264-0.469,0.47-0.693,0.717c-0.226,0.244-0.453,0.492-0.642,0.764    c-0.42,0.6-0.382,1.38,0.072,1.836c0.459,0.461,1.001,0.441,1.533,0.191c0.906-0.429,1.856-0.802,2.678-1.36    c2.009-1.36,4.175-1.332,6.415-0.928c0.104,0.018,0.287,0.137,0.282,0.148c-0.078,0.193-0.132,0.47-0.282,0.543    c-0.693,0.336-1.428,0.584-2.12,0.922c-0.613,0.299-0.576,1.265,0.004,1.653c0.684,0.456,1.409,0.696,2.211,0.454    c0.959-0.29,1.911-0.606,2.844-0.968c0.909-0.349,1.704-0.255,2.525,0.282c2.171,1.418,4.057,3.134,5.587,5.223    c1.322,1.802,2.451,3.735,3.23,5.83c1.552,4.174,2.847,8.413,3.68,12.812c0.874,4.605,1.421,9.255,1.671,13.906    C98.301,54.952,98.104,58.769,97.003,62.448z M69.888,62.532c-0.849-3.996-2.757-7.502-6.065-10.098    c-1.156-0.906-2.378-1.811-3.885-1.68c-0.991,0.088-1.652-0.193-2.439-0.689c-2.183-1.379-4.423-1.313-6.602,0.091    c-1.691,1.088-3.313,2.251-4.663,3.771c-2.617,2.941-2.723,6.348-1.32,9.685c1.159,2.757,3.003,5.198,5.234,7.281    c1.533,1.432,3.326,2.197,5.415,2.272c0.667,0.025,1.337,0.004,2.005,0.004v0.017c0.669,0,1.346,0.068,2.004-0.012    c3.066-0.375,5.814-1.53,8.084-3.641C69.69,67.644,70.441,65.133,69.888,62.532z M58.045,64.771    c-1.723-0.454-2.959-1.538-3.905-2.921c-0.469-0.685-0.558-1.631-0.822-2.467c0.407-1.363,0.734-2.646,1.177-3.889    c0.375-1.053,0.997-1.361,2.076-0.938c0.773,0.304,1.43,0.412,2.211,0.078c0.678-0.289,1.33,0.025,1.84,0.479    c0.829,0.734,1.646,1.492,2.39,2.31c1.107,1.22,2.119,2.516,2.197,4.275C63.861,63.987,60.44,65.403,58.045,64.771z     M41.413,39.778c0.558,0.018,1.116,0.003,1.808,0.003c2.239,0.288,4.246-0.489,5.974-2.1c1.384-1.29,2.798-2.548,4.179-3.839    c0.487-0.455,0.955-0.94,1.364-1.463c1.961-2.514,1.691-5.198,0.451-7.877c-1.255-2.707-3.639-3.447-6.381-3.311    c-1.777,0.09-3.555,0.279-5.315,0.545c-1.091,0.166-2.165,0.508-3.212,0.869c-0.745,0.258-1.312,0.779-1.69,1.527    c-0.452,0.893-0.149,1.562,0.825,1.633c2.55,0.184,5.103,0.354,7.652,0.564c0.88,0.072,1.754,0.234,2.624,0.392    c0.173,0.03,0.389,0.202,0.459,0.364c0.646,1.504,0.12,2.908-1.304,3.541c-0.712,0.316-1.415,0.663-2.147,0.924    c-2.377,0.844-4.592,0.594-6.564-1.073c-0.34-0.286-0.636-0.628-0.995-0.886c-1.023-0.739-2.593-0.143-2.927,1.115    c-0.198,0.752-0.417,1.516-0.468,2.286C35.468,37.166,37.934,39.67,41.413,39.778z M36.981,59.301    c0.923-1.008,1.545-2.332,1.069-3.672c-0.436-1.223-1.263-2.318-1.995-3.419c-0.357-0.537-1.45-0.612-2.17-0.287    c-0.716,0.323-1.146,1.103-0.979,1.917c0.111,0.536,0.382,1.041,0.492,1.578c0.098,0.475-0.144,0.924-0.616,1.019    c-1.435,0.288-2.873,0.332-4.193-0.46c-0.856-0.514-1.691-1.061-2.527-1.608c-0.961-0.632-1.574-1.538-2.009-2.587    c-0.9-2.17,0.098-4.497,2.337-5.408c0.202-0.08,0.453-0.057,0.634-0.162c0.441-0.254,0.533-0.676,0.396-1.138    c-0.273-0.927-0.922-1.593-1.808-1.805c-3.08-0.737-4.745-0.067-6.033,2.622c-0.466,0.974-0.646,2.115-0.788,3.201    c-0.128,0.982-0.026,1.994-0.026,2.994h-0.043c0,0.777-0.024,1.555,0.004,2.33c0.14,4.039,2.843,7.285,6.783,7.867    c3.116,0.461,6.222,0.214,9.103-1.209C35.486,60.643,36.324,60.018,36.981,59.301z M41.716,69.83    c-1.863-0.084-3.709,0.494-5.589,0.2c-0.201-0.03-0.433,0.089-0.641,0.161c-2.996,1.074-4.265,2.718-4.274,6.359    c-0.005,1.859,0.655,3.465,2.311,4.559c1.113,0.733,2.156,1.572,3.23,2.361c1.431,1.048,3.056,1.316,4.762,1.074    c2.412-0.342,4.12-1.619,4.782-4.026c0.291-1.062,0.386-2.176,0.604-3.47c-0.222-1.154-0.312-2.512-0.757-3.74    C45.414,71.298,43.985,69.931,41.716,69.83z M42.205,77.409c-0.008,0.125-0.01,0.682-0.093,1.225    c-0.134,0.888-1.087,1.477-2,1.276c-0.215-0.048-0.47-0.046-0.634-0.165c-1.16-0.838-2.349-1.646-3.429-2.578    c-0.756-0.651-0.346-2.17,0.623-2.461c1.051-0.314,2.119-0.6,3.199-0.775c1.442-0.234,2.26,0.533,2.332,2.057    C42.218,76.317,42.205,76.651,42.205,77.409z M74.89,29.903c0.382,0.888,1.021,1.746,1.752,2.379    c1.564,1.352,3.394,1.483,5.263,0.617c1.547-0.718,1.816-2.114,1.821-3.625v-0.668c0.077-2.73-1.021-4.94-2.995-6.762    c-0.593-0.549-1.289-0.799-2.1-0.873c-3.095-0.285-5.175,2.896-4.825,5.119C74.013,27.389,74.37,28.698,74.89,29.903z     M85.686,48.011c-0.095-1.283-0.711-2.308-1.71-3.099c-0.844-0.665-1.811-0.822-2.815-0.481c-1.701,0.575-1.963,2.604-3.436,3.468    c-0.385,0.228-0.489,0.939-0.711,1.434c-0.044,0.096-0.044,0.217-0.044,0.326c-0.003,1.324-0.026,2.65,0.007,3.975    c0.028,1.096,0.663,1.914,1.551,2.402c1.054,0.58,2.213,0.966,3.334,1.417c0.197,0.078,0.434,0.099,0.648,0.083    c1.551-0.113,3.005-1.357,3.192-2.906c0.132-1.088,0.025-2.203,0.025-3.309h0.111C85.789,50.218,85.766,49.112,85.686,48.011z     M75.272,72.608c-1.332-0.17-2.669-0.178-3.895,0.474c-3.118,1.654-5.368,3.913-5.259,7.765c0,0.221-0.008,0.443,0.001,0.664    c0.066,1.511,0.957,2.412,2.518,2.533c1.485,0.117,2.891-0.187,4.094-1.062c0.891-0.647,1.711-1.403,2.495-2.178    c1.813-1.795,2.177-4.025,1.796-6.442C76.875,73.427,76.177,72.723,75.272,72.608z M62.235,40.486    c0.542,0.093,1.1,0.085,1.661,0.125c0.653-0.054,1.324-0.048,1.97-0.175c1.339-0.264,2.146-1.154,2.36-2.461    c0.232-1.414,0.462-2.887-0.877-3.98c-0.085-0.07-0.171-0.142-0.265-0.199c-1.965-1.164-4.033-0.814-6.102-0.405    c-0.101,0.02-0.188,0.112-0.278,0.175c-1.108,0.771-1.848,2.554-1.51,3.797C59.625,38.952,60.48,40.182,62.235,40.486z     M63.4,36.744c0.543-0.059,1.096-0.164,1.624-0.092c0.207,0.027,0.357,0.475,0.533,0.731c-0.185,0.11-0.366,0.236-0.562,0.328    c-0.094,0.045-0.22,0.027-0.557,0.059c-0.212-0.055-0.646-0.127-1.043-0.292c-0.129-0.054-0.178-0.343-0.219-0.536    C63.166,36.891,63.315,36.752,63.4,36.744z" fill="#FFDA44"/>
	</g>
</g>
<g>
</g>
<g>
</g>
<g>
</g>
<g>
</g>
<g>
</g>
<g>
</g>
<g>
</g>
<g>
</g>
<g>
</g>
<g>
</g>
<g>
</g>
<g>
</g>
<g>
</g>
<g>
</g>
<g>
</g>
</svg>
